<?xml version="1.0" standalone="no"?>
<!DOCTYPE svg PUBLIC "-//W3C//DTD SVG 1.1//EN" "http://www.w3.org/Graphics/SVG/1.1/DTD/svg11.dtd"><svg xmlns="http://www.w3.org/2000/svg" style="background-color:#FFF" width="100" height="100"><path stroke="black" fill="none" stroke-width="1" d="M36.069, 0L36.069, 18.034L33.708, 18.189L31.399, 18.648L29.172, 19.403L27.052, 20.451L24.936, 21.867L23.107, 23.502L21.558, 25.313L20.288, 27.283L19.300, 29.373L18.597, 31.554L18.176, 33.794L18.034, 36.069L18.176, 38.339L18.597, 40.584L19.300, 42.764L20.288, 44.854L21.558, 46.820L23.107, 48.635L24.936, 50.266L27.052, 51.687L29.335, 52.807L31.665, 53.575L34.013, 54.013L36.348, 54.124L38.652, 53.936L40.893, 53.455L43.047, 52.700L45.086, 51.687L46.983, 50.429L48.712, 48.940L50.249, 47.240L51.567, 45.339L52.635, 43.258L53.433, 41.009L53.931, 38.609L54.103, 36.069L72.137, 36.069L71.824, 40.785L70.906, 45.403L69.395, 49.863L67.305, 54.103L64.468, 58.330L61.202, 61.991L57.575, 65.090L53.639, 67.627L49.459, 69.601L45.099, 71.009L40.614, 71.854L36.069, 72.137L31.524, 71.854L27.039, 71.009L22.678, 69.601L18.498, 67.627L14.562, 65.090L10.931, 61.991L7.670, 58.330L4.833, 54.103L2.592, 49.532L1.052, 44.876L0.180, 40.180L-0.047, 35.506L0.335, 30.897L1.292, 26.416L2.803, 22.112L4.833, 18.034L7.348, 14.240L10.322, 10.777L13.725, 7.704L17.524, 5.073L21.687, 2.931L26.185, 1.339L30.987, 0.343"/><path stroke="black" fill="none" stroke-width="1" d="M36.069, 0L36.069, 18.034L32.433, 18.399L29.047, 19.451L25.987, 21.116L23.318, 23.318L21.116, 25.987L19.451, 29.047L18.399, 32.433L18.034, 36.069L0, 36.069L0.185, 32.382L0.734, 28.798L1.622, 25.343L2.833, 22.030L4.352, 18.876L6.159, 15.901L8.236, 13.124L10.562, 10.562L13.124, 8.236L15.901, 6.159L18.876, 4.352L22.030, 2.833L25.343, 1.622L28.798, 0.734L32.382, 0.185"/><path stroke="black" fill="none" stroke-width="1" d="M47.339, 36.069L47.112, 38.339L46.455, 40.455L45.412, 42.369L44.039, 44.039L42.369, 45.412L40.455, 46.455L38.339, 47.112L36.069, 47.339L33.798, 47.112L31.682, 46.455L29.768, 45.412L28.099, 44.039L26.721, 42.369L25.682, 40.455L25.026, 38.339L24.798, 36.069L25.026, 33.798L25.682, 31.682L26.721, 29.768L28.099, 28.099L29.768, 26.721L31.682, 25.682L33.798, 25.026L36.069, 24.798L38.339, 25.026L40.455, 25.682L42.369, 26.721L44.039, 28.099L45.412, 29.768L46.455, 31.682L47.112, 33.798"/><path stroke="black" fill="none" stroke-width="1" d="M47.339, 36.069L24.798, 36.069L25.189, 33.129L26.309, 30.433L28.082, 28.116L30.433, 26.309L33.318, 25.124L36.245, 24.781L39.086, 25.202L41.704, 26.309L43.970, 28.021L45.755, 30.270L46.923, 32.979"/></svg>